<?xml version="1.0" encoding="UTF-8" standalone="no"?>
<svg width="29px" height="29px" viewBox="0 0 29 29" version="1.1" xmlns="http://www.w3.org/2000/svg" xmlns:xlink="http://www.w3.org/1999/xlink">
    <!-- Generator: Sketch 3.8.3 (29802) - http://www.bohemiancoding.com/sketch -->
    <title>settings</title>
    <desc>Created with Sketch.</desc>
    <defs></defs>
    <g id="Page-1" stroke="none" stroke-width="1" fill="none" fill-rule="evenodd" stroke-linecap="round" opacity="0.6">
        <g id="Desktop" transform="translate(-189.000000, -762.000000)" stroke="#FFFFFF" stroke-width="2">
            <g id="Group-4" transform="translate(180.000000, 0.000000)">
                <path d="M36.88,778.21312 L36.88,774.85312 L32.88104,774.1996 C32.64416,773.25264 32.27232,772.36224 31.78232,771.54688 L34.11304,768.22496 L31.73696,765.85 L28.4576,768.2076 C27.64,767.71256 26.744,767.33512 25.79032,767.09768 L25.09312,763.11832 L21.73312,763.11832 L21.08576,767.0848 C20.13152,767.31888 19.23048,767.69128 18.41064,768.18408 L15.1408,765.84776 L12.76472,768.22272 L15.06464,771.51216 C14.56736,772.33536 14.18936,773.23528 13.94912,774.19568 L10,774.85312 L10,778.21312 L13.94464,778.91256 C14.18264,779.87072 14.5612,780.77064 15.06016,781.59496 L12.72888,784.85584 L15.10384,787.23304 L18.3972,784.9264 C19.21928,785.42032 20.11808,785.79552 21.07232,786.03128 L21.73312,790 L25.09312,790 L25.79928,786.0212 C26.74848,785.7804 27.6456,785.4024 28.45984,784.9068 L31.77616,787.2336 L34.15168,784.8564 L31.78456,781.5692 C32.27456,780.75384 32.6464,779.86232 32.88104,778.91536 L36.88,778.21312 L36.88,778.21312 Z M23.44,781.03888 C20.96592,781.03888 18.96,779.03296 18.96,776.55888 C18.96,774.0848 20.96592,772.07888 23.44,772.07888 C25.91408,772.07888 27.92,774.0848 27.92,776.55888 C27.92,779.03296 25.91408,781.03888 23.44,781.03888 L23.44,781.03888 Z" id="settings"></path>
            </g>
        </g>
    </g>
</svg>