<?xml version="1.0" encoding="UTF-8" standalone="no"?>
<svg width="12px" height="12px" viewBox="0 0 12 12" version="1.1" xmlns="http://www.w3.org/2000/svg" xmlns:xlink="http://www.w3.org/1999/xlink">
    <!-- Generator: Sketch 3.8.3 (29802) - http://www.bohemiancoding.com/sketch -->
    <title>Shape</title>
    <desc>Created with Sketch.</desc>
    <defs></defs>
    <g id="Page-1" stroke="none" stroke-width="1" fill="none" fill-rule="evenodd">
        <g id="Desktop" transform="translate(-12.000000, -153.000000)" fill="#FFFFFF">
            <path d="M12,156.846667 L12,160.846667 L14.6666667,160.846667 L18,164.18 L18,153.513333 L14.6666667,156.846667 L12,156.846667 L12,156.846667 Z M21,158.846667 C21,157.666667 20.32,156.653333 19.3333333,156.16 L19.3333333,161.526667 C20.32,161.04 21,160.026667 21,158.846667 L21,158.846667 Z M19.3333333,153 L19.3333333,154.373333 C21.26,154.946667 22.6666667,156.733333 22.6666667,158.846667 C22.6666667,160.96 21.26,162.746667 19.3333333,163.32 L19.3333333,164.693333 C22.0066667,164.086667 24,161.7 24,158.846667 C24,155.993333 22.0066667,153.606667 19.3333333,153 L19.3333333,153 Z" id="Shape"></path>
        </g>
    </g>
</svg>