<?xml version="1.0" encoding="UTF-8" standalone="no"?>
<svg width="32px" height="22px" viewBox="0 0 32 22" version="1.1" xmlns="http://www.w3.org/2000/svg" xmlns:xlink="http://www.w3.org/1999/xlink">
    <!-- Generator: Sketch 3.8.3 (29802) - http://www.bohemiancoding.com/sketch -->
    <title>Group 2</title>
    <desc>Created with Sketch.</desc>
    <defs>
        <path d="M14.4247678,4.70588235 C11.0702538,4.70588235 8.1749324,6.67191936 6.82821431,9.51458258 C6.56498327,9.47944118 6.29637485,9.46130031 6.02352941,9.46130031 C2.69682598,9.46130031 0,12.1581263 0,15.4848297 C0,18.8115332 2.69682598,21.5083591 6.02352941,21.5083591 L24.2526316,21.5083591 C27.4917902,21.5083591 30.1176471,18.8825023 30.1176471,15.6433437 C30.1176471,12.404185 27.4917902,9.77832817 24.2526316,9.77832817 C23.5601551,9.77832817 22.8957084,9.89833797 22.2789552,10.1186938 C21.0742405,6.95425855 18.0120724,4.70588235 14.4247678,4.70588235 Z" id="path-1"></path>
        <mask id="mask-2" maskContentUnits="userSpaceOnUse" maskUnits="objectBoundingBox" x="0" y="0" width="30.1176471" height="16.8024768" fill="white">
            <use xlink:href="#path-1"></use>
        </mask>
        <path d="M31.476501,11.4088915 C31.8150671,10.4935169 32,9.50364928 32,8.47058824 C32,3.79241153 28.2075885,0 23.5294118,0 C21.3842367,0 19.4253093,0.797421062 17.9328827,2.11201" id="path-3"></path>
        <mask id="mask-4" maskContentUnits="userSpaceOnUse" maskUnits="objectBoundingBox" x="0" y="0" width="14.0671173" height="11.4088915" fill="white">
            <use xlink:href="#path-3"></use>
        </mask>
    </defs>
    <g id="Page-1" stroke="none" stroke-width="1" fill="none" fill-rule="evenodd" opacity="0.600000024">
        <g id="Desktop" transform="translate(-188.000000, -10.000000)" stroke="#FFFFFF" stroke-width="4">
            <g id="Group-5" transform="translate(188.000000, 10.000000)">
                <g id="Group-2">
                    <use id="Combined-Shape" mask="url(#mask-2)" xlink:href="#path-1"></use>
                    <use id="Oval-3" mask="url(#mask-4)" xlink:href="#path-3"></use>
                </g>
            </g>
        </g>
    </g>
</svg>